# xmcd
#
# Track frame offsets:
#	150
#	27322
#	48373
#	64262
#	89174
#	104825
#	121686
#	143201
#	161095
#	176703
#	196375
#	217953
#	233042
#	250548
#	265802
#	280550
#
# Disc length: 3962 seconds
#
# Revision: 0
# Processed by: cddbd v1.5.2PL0 Copyright (c) Steve Scherf et al.
# Submitted via: EasyCDDAExtractor 16.0.6.1
#
DISCID=e70f7810
DTITLE=Συλλογικός δίσκος - Σαράντα οκτώ αδέσποτα ρεμπέτικα 2
DYEAR=1993
DGENRE=Ρεμπέτικη
TTITLE0=Λεμπέσης Γιάννης - Της τριανταφυλλιάς τα φύλλα [αργό ζεϊμπέκικο 9)8 το
TTITLE0=υ 19ου, ραστ μαχούρ]
TTITLE1=Λεμπέσης Γιάννης - Ρίχνω ζάρια [μουρμούρικο ζεϊμπέκικο 9)8 φυλακής, τέ
TTITLE1=λη 19ου, διατ. μινόρε κ ουσάκ, πρ. ταξίμι με τζουρά]
TTITLE2=Λεμπέσης Γιάννης - Έχασα μαντήλι [συρτός 2)4 Σμύρνης 1870, δρόμος διατ
TTITLE2=ονικό μινόρε]
TTITLE3=Λεμπέσης Γιάννης-Ζορμπάς Γιώργος - Μήλο μου και μανταρίνι [αργό ακουστ
TTITLE3=ικό τσιφτετέλι 4)4 Πόλης αρχές 20ου, ουσάκ, πρ. ταξίμι ούτι]
TTITLE4=Λεμπέσης Γιάννης - Σακραμέντο-Μπόστον-Νέα Υόρκη [καμηλιέρικο ζεϊμπέκικ
TTITLE4=ο 9)8 ΕλλήνωνΑμερικής, τέλη 19ου, ατζέμ ουσάκ]
TTITLE5=Λεμπέσης Γιάννης-Νικολάου Ασημένια - Γυαλιτζαριανή [συρτός 2)4 Σμύρνης
TTITLE5=1850, δρόμος ουσάκ]
TTITLE6=Νικολάου Ασημένια - Έσβησε φως μου ο σεβντάς [συρτός 2)4 παράλια Μ.Ασί
TTITLE6=ας αρχές 20ου, δρόμος ουσάκ, προηγ ταξίμι με ούτι]
TTITLE7=Λεμπέσης Γιάννης - Τώρα το βράδυ με δροσιά [καλαματιανό 7)8 Στερεάς Ελ
TTITLE7=λάδας, δρόμος διατονικό μινόρε]
TTITLE8=Ζορμπάς Γιώργος - Μανάκι μου [απτάλικο ζεϊμπέκικο 9)8 σε γνωστό χαβά α
TTITLE8=ρχές 20ου, δρόμος ουσάκ]
TTITLE9=Λεμπέσης Γιάννης - Αμάν γυάλα [καρσιλαμάς 9)8 Πόλης τέλη 19ου, δρόμοι 
TTITLE9=διατονικό μινόρε και ουσάκ]
TTITLE10=Νικολάου Ασημένια - Ψαράδες [χορευτικό τσιφτετέλι 2)4 παράλια Μ.Ασίας
TTITLE10=τέλη 19ου, δρόμος διατονικό μινόρε]
TTITLE11=Λεμπέσης Γιάννης-Νικολάου Ασημένια - Τα μαλιά σου κι ελιά σου [Αϊδίνι
TTITLE11=κο ζεϊμπέκ. 9)8 σε πλούσια ενορχ., ουσάκ, πρ. ταξίμι ταμπ.]
TTITLE12=Άνευ ερμηνευτού - Αϊβαλιώτικο [Αϊβαλιώτικο ζεϊμπέκικο 9)8 ΝΚαρατάσος,
TTITLE12=δρόμος σαμπάχ, προηγ ταξίμι με σαντούρι]
TTITLE13=Νικολάου Ασημένια - Έχε γεια, πάντα γεια [γρήγορο χασάπικο 2)4 αρχών 
TTITLE13=20ου, δρόμος χιτζάζ]
TTITLE14=Άνευ ερμηνευτού - Γρήγορο ταταυλιανό-χασάπικο [γρήγορο χασ/κο 2)4 Πόλ
TTITLE14=ης τέλ 19ου, δρ. νιαβέντ και ραστ ίδιας τονικής]
TTITLE15=Άνευ ερμηνευτού - Μνήμες [σαντούρι Ν. Καρατάσος, αυτοσχεδιασμός σε δρ
TTITLE15=όμο νιαβέντ και στα μεάνια του χιτζάζ και σαμπάχ]
EXTD=
EXTT0=
EXTT1=
EXTT2=
EXTT3=
EXTT4=
EXTT5=
EXTT6=
EXTT7=
EXTT8=
EXTT9=
EXTT10=
EXTT11=
EXTT12=
EXTT13=
EXTT14=
EXTT15=
PLAYORDER=
